PathFileType	4	(X/Y/Z)	./resultDataOpenSim/trcMotMarkerGrf/sub10/qtm-04-02.trc
DataRate	CameraRate	NumFrames	NumMarkers	Units	OrigDataRate	OrigDataStartFrame	OrigNumFrames
250.000000	250.000000	9	24	m	250.000000	198	527
Frame#	Time	L.Toe.Tip			R.Toe.Tip			L.Ankle.Lat			R.Ankle.Lat			L.Ankle.Med			R.Ankle.Med			L.Heel			R.Heel			L.Knee.Lat			R.Knee.Lat			L.Knee.Med			R.Knee.Med			L.Thigh.Upper			R.Thigh.Upper			L.ASIS			R.ASIS			V.Sacral			L.Acromium			R.Acromium			C7			L.Elbow			R.Elbow			L.Wrist.Lat			R.Wrist.Lat
		X1	Y1	Z1	X2	Y2	Z2	X3	Y3	Z3	X4	Y4	Z4	X5	Y5	Z5	X6	Y6	Z6	X7	Y7	Z7	X8	Y8	Z8	X9	Y9	Z9	X10	Y10	Z10	X11	Y11	Z11	X12	Y12	Z12	X13	Y13	Z13	X14	Y14	Z14	X15	Y15	Z15	X16	Y16	Z16	X17	Y17	Z17	X18	Y18	Z18	X19	Y19	Z19	X20	Y20	Z20	X21	Y21	Z21	X22	Y22	Z22	X23	Y23	Z23	X24	Y24	Z24

198	0.788	-0.0059675686	-0.029738522	-0.11754421	-0.76594596	0.038942254	0.023757708	-0.13625475	0.016248713	-0.17149507	-0.88758475	0.10671791	0.049994147	-0.13719759	0.03883381	-0.089895688	-0.85386958	0.11702005	-0.034031722	-0.20002784	-0.0069243553	-0.1307339	-0.94172834	0.10193142	0.0010244994	-0.19659298	0.40225201	-0.18871827	-0.62425124	0.407309	0.082841077	-0.17888163	0.38083756	-0.068283007	-0.58397987	0.39463474	-0.042162296	-0.31966546	0.7661391	-0.2264257	-0.49314985	0.79229603	0.12739671	-0.29280178	0.87261773	-0.13582522	-0.38160244	0.87057096	0.097275575	-0.51944953	0.88070812	-0.10380427	-0.42002162	1.3447458	-0.20094254	-0.44891426	1.3367338	0.11851936	-0.51404938	1.3643685	-0.054701668	-0.58710936	1.0641494	-0.28537687	-0.42875189	0.97118417	0.15677	-0.5619059	0.83727425	-0.36843115	-0.18552719	0.91542182	0.11818015
199	0.792	-0.0055312836	-0.03031428	-0.11763176	-0.76541452	0.038950867	0.023829144	-0.13731148	0.01365679	-0.17054279	-0.88522344	0.10958923	0.050251537	-0.13740127	0.036489095	-0.088857061	-0.85129641	0.11925447	-0.033573839	-0.20099195	-0.010174838	-0.12896419	-0.93953556	0.10618804	0.0010560322	-0.19086919	0.40054418	-0.18885506	-0.61931853	0.40673878	0.082685194	-0.1728484	0.37920598	-0.068609928	-0.57777948	0.39350765	-0.042399943	-0.31271166	0.76493734	-0.22706203	-0.48568802	0.79073736	0.12687579	-0.28584616	0.87154149	-0.13659634	-0.37390358	0.86915922	0.096469657	-0.51244419	0.87998342	-0.10392954	-0.41396544	1.3436633	-0.20200419	-0.44234438	1.3356283	0.11756545	-0.50786388	1.3629875	-0.055592661	-0.58069755	1.0628754	-0.28522063	-0.42317025	0.96999315	0.15544742	-0.5572661	0.83656934	-0.37057594	-0.17981774	0.91425092	0.11692824
200	0.796	-0.0053531871	-0.030745206	-0.11768096	-0.76480585	0.038948972	0.02387645	-0.13843022	0.0111164	-0.16967868	-0.88261888	0.11257724	0.050463317	-0.13760141	0.034432949	-0.087928766	-0.84838213	0.12153785	-0.033103213	-0.2018984	-0.012747309	-0.12746518	-0.9370103	0.11060288	0.0010113163	-0.18513113	0.39887809	-0.18899636	-0.61380172	0.40609606	0.082549944	-0.16697221	0.37758546	-0.068873879	-0.57139937	0.39228969	-0.042678492	-0.30577197	0.76372239	-0.22772979	-0.47811256	0.78913735	0.12638617	-0.27889327	0.87044066	-0.13743162	-0.36615948	0.86771563	0.095608542	-0.50545875	0.87924305	-0.10404677	-0.40787722	1.3425897	-0.20308074	-0.43570157	1.3345327	0.11657914	-0.50164544	1.3616346	-0.0565064	-0.57421977	1.0615853	-0.28521026	-0.41753459	0.96881678	0.15414171	-0.55247885	0.83586465	-0.37277536	-0.17411099	0.91296623	0.11575603
201	0.8	-0.0054691987	-0.031030705	-0.11765035	-0.7641136	0.038914409	0.023864756	-0.13955035	0.0086704278	-0.16903328	-0.8797509	0.11567575	0.050637868	-0.13799825	0.032565686	-0.087238958	-0.84509159	0.12381514	-0.032640116	-0.20269932	-0.015230793	-0.12650922	-0.93405034	0.11505582	0.00084501116	-0.1793679	0.39727021	-0.1891614	-0.60693313	0.40526801	0.082521926	-0.16124876	0.37601148	-0.069078547	-0.56475605	0.39099286	-0.042953177	-0.29885564	0.76252695	-0.22843552	-0.47044085	0.78750617	0.12593603	-0.27197414	0.86931622	-0.13832662	-0.35839307	0.86624889	0.094708971	-0.49848941	0.87848431	-0.10421551	-0.40176009	1.3415224	-0.20416744	-0.42898706	1.3334521	0.11556233	-0.49538555	1.3603182	-0.057439318	-0.56765924	1.0602807	-0.28529382	-0.41182468	0.9676681	0.15286812	-0.5475493	0.83515247	-0.37503196	-0.16842194	0.91155511	0.11466692
202	0.804	-0.005754088	-0.031237461	-0.11758471	-0.76335406	0.038838296	0.023788338	-0.1405131	0.0064297228	-0.16866463	-0.87663912	0.11888706	0.050773556	-0.13852653	0.030753711	-0.086780005	-0.84145241	0.1260657	-0.032198944	-0.20340263	-0.017956436	-0.126157	-0.9306587	0.11958932	0.00037536324	-0.17358869	0.39573165	-0.18933409	-0.59837318	0.40418541	0.082682601	-0.15567535	0.37449228	-0.069239946	-0.55778603	0.38961839	-0.043169908	-0.29192645	0.76139284	-0.22918319	-0.46268297	0.78585072	0.12552366	-0.26511778	0.86817266	-0.13927124	-0.35061623	0.86476817	0.093793446	-0.4915398	0.87771203	-0.10449829	-0.39562338	1.3404658	-0.20526636	-0.42221385	1.3323909	0.1145324	-0.48907668	1.3590456	-0.058382652	-0.56101376	1.0589677	-0.28543666	-0.40606651	0.96654325	0.15161989	-0.54248222	0.83442622	-0.37733851	-0.16276227	0.91001395	0.11365721
203	0.808	-0.0060093004	-0.031408643	-0.11756427	-0.76255402	0.038729133	0.023663565	-0.14116285	0.0044728714	-0.16853008	-0.8732921	0.1222287	0.050834619	-0.13904924	0.028951154	-0.086504895	-0.83748284	0.12831443	-0.03178313	-0.20399876	-0.020733685	-0.12633657	-0.92684864	0.12428096	-0.00041406548	-0.16779542	0.39427538	-0.18948907	-0.58864044	0.40290271	0.082984636	-0.15024415	0.37302653	-0.069370043	-0.55047105	0.38814858	-0.043294695	-0.28492981	0.76035569	-0.22997529	-0.45484747	0.78416975	0.12514187	-0.25832935	0.86702127	-0.14024705	-0.34283617	0.86327879	0.092868063	-0.48460939	0.87692914	-0.10493635	-0.38948624	1.3394307	-0.20638964	-0.4153966	1.331351	0.11350267	-0.48271899	1.3578189	-0.059326355	-0.55430352	1.0576561	-0.28561654	-0.40028761	0.96543828	0.15038249	-0.53728293	0.83369492	-0.37968185	-0.15712843	0.9083578	0.11272981
204	0.812	-0.0061107246	-0.031552918	-0.11762437	-0.76173469	0.038600055	0.023502985	-0.14142714	0.0027847232	-0.16854172	-0.86969824	0.12571462	0.050785271	-0.1394877	0.027206338	-0.086395425	-0.83316482	0.13059839	-0.031387618	-0.2044388	-0.023245328	-0.12689143	-0.92261618	0.12912638	-0.0013068992	-0.16198586	0.39290863	-0.18961068	-0.57859496	0.40155101	0.083260014	-0.1449473	0.371617	-0.069464328	-0.54282428	0.38656117	-0.04330287	-0.27787229	0.75942847	-0.23081697	-0.44694611	0.78245916	0.12478355	-0.25158237	0.86587707	-0.14123618	-0.33506543	0.86178416	0.091921755	-0.47771001	0.87614634	-0.1054849	-0.38335719	1.3384275	-0.20754452	-0.4085379	1.3303335	0.11246818	-0.47632105	1.3566351	-0.060266733	-0.54755162	1.056351	-0.28583563	-0.39450577	0.96435805	0.14915354	-0.53195583	0.83297398	-0.38205739	-0.15150711	0.9066119	0.11190406
205	0.816	-0.0060724455	-0.031680757	-0.11773892	-0.76089846	0.038452474	0.023306585	-0.14135342	0.0012641433	-0.16865456	-0.86582489	0.12933462	0.05061389	-0.13986407	0.025565674	-0.086451555	-0.82844458	0.13290913	-0.031005338	-0.20470165	-0.02542947	-0.1276353	-0.91796453	0.13407537	-0.0021291588	-0.15617974	0.39162297	-0.1896878	-0.56864663	0.4002171	0.083397054	-0.13979124	0.37026795	-0.069500619	-0.53486171	0.38483669	-0.043165837	-0.27082554	0.75860633	-0.23171631	-0.4389901	0.78071683	0.12444477	-0.24483423	0.86475196	-0.1422285	-0.32732257	0.86028706	0.090943619	-0.47086956	0.87538727	-0.10603317	-0.37721998	1.3374572	-0.2087213	-0.40165328	1.3293397	0.11141827	-0.46989293	1.3554873	-0.061220647	-0.54074556	1.0550458	-0.28615538	-0.38874221	0.96330801	0.14793883	-0.52649778	0.83226554	-0.38446496	-0.14589164	0.90479146	0.11119921
206	0.82	-0.0059977187	-0.031811934	-0.11785215	-0.76003336	0.038277283	0.023081681	-0.14108317	-0.00020899715	-0.16887407	-0.86162058	0.13305422	0.050328417	-0.14028416	0.024026918	-0.086658873	-0.82324021	0.13517057	-0.03062699	-0.20484862	-0.027385726	-0.12845289	-0.91287447	0.13909017	-0.0028977226	-0.15041485	0.39039658	-0.18971288	-0.55860699	0.39888636	0.083405383	-0.13479787	0.368971	-0.069454574	-0.52658003	0.38295783	-0.042856466	-0.26383908	0.75788471	-0.23267502	-0.43099154	0.77894395	0.12413081	-0.23807244	0.86365246	-0.14322055	-0.31962542	0.85878984	0.089931457	-0.46411887	0.87466729	-0.10649547	-0.37105067	1.3365119	-0.20990133	-0.39476866	1.3283742	0.1103483	-0.4634399	1.3543679	-0.062233004	-0.5338383	1.0537283	-0.28666958	-0.38301278	0.96229238	0.14674074	-0.52089237	0.83156135	-0.38689713	-0.14028609	0.90289645	0.11061661
